<?xml version="1.0"?>
<svg xmlns="http://www.w3.org/2000/svg" viewBox="0 0 16 16">
    <path style="line-height:normal;text-indent:0;text-align:start;text-decoration-line:none;text-decoration-style:solid;text-decoration-color:#000;text-transform:none;block-progression:tb;isolation:auto;mix-blend-mode:normal" d="M 2.5 2 C 1.6774686 2 1 2.6774686 1 3.5 L 1 11.5 C 1 12.322531 1.6774686 13 2.5 13 L 7.2753906 13 C 7.8970971 14.741637 9.5487862 16 11.5 16 C 13.979359 16 16 13.979359 16 11.5 C 16 10.440389 15.616209 9.477153 15 8.7070312 L 15 3.5 C 15 2.6774686 14.322531 2 13.5 2 L 2.5 2 z M 2.5 3 L 13.5 3 C 13.533508 3 13.562289 3.0135998 13.59375 3.0195312 L 8 6.8925781 L 2.40625 3.0195312 C 2.4377112 3.0135998 2.4664925 3 2.5 3 z M 2 3.953125 L 8 8.1074219 L 14 3.9550781 L 14 7.7617188 C 13.284198 7.2811365 12.424149 7 11.5 7 C 9.0206409 7 7 9.0206409 7 11.5 C 7 11.67136 7.0319923 11.833538 7.0507812 12 L 2.5 12 C 2.2185314 12 2 11.781469 2 11.5 L 2 3.953125 z M 11.5 8 C 13.438919 8 15 9.5610811 15 11.5 C 15 13.438919 13.438919 15 11.5 15 C 9.5610811 15 8 13.438919 8 11.5 C 8 9.5610811 9.5610811 8 11.5 8 z M 11 9 L 11 11 L 9 11 L 9 12 L 11 12 L 11 14 L 12 14 L 12 12 L 14 12 L 14 11 L 12 11 L 12 9 L 11 9 z" font-weight="400" font-family="sans-serif" white-space="normal" overflow="visible"/>
</svg>
