<?xml version="1.0" encoding="UTF-8" standalone="no"?>
<!-- Generator: Adobe Illustrator 20.1.0, SVG Export Plug-In . SVG Version: 6.00 Build 0)  -->

<svg
   version="1.1"
   id="Слой_1"
   x="0px"
   y="0px"
   viewBox="0 0 50.000001 50.00219"
   xml:space="preserve"
   sodipodi:docname="croix2.svg"
   inkscape:version="1.1.2 (b8e25be833, 2022-02-05)"
   width="50"
   height="50.00219"
   xmlns:inkscape="http://www.inkscape.org/namespaces/inkscape"
   xmlns:sodipodi="http://sodipodi.sourceforge.net/DTD/sodipodi-0.dtd"
   xmlns="http://www.w3.org/2000/svg"
   xmlns:svg="http://www.w3.org/2000/svg"><defs
   id="defs19" /><sodipodi:namedview
   id="namedview17"
   pagecolor="#ffffff"
   bordercolor="#666666"
   borderopacity="1.0"
   inkscape:pageshadow="2"
   inkscape:pageopacity="0.0"
   inkscape:pagecheckerboard="0"
   showgrid="false"
   inkscape:zoom="5.2265626"
   inkscape:cx="14.445441"
   inkscape:cy="38.266068"
   inkscape:window-width="1600"
   inkscape:window-height="829"
   inkscape:window-x="-8"
   inkscape:window-y="-8"
   inkscape:window-maximized="1"
   inkscape:current-layer="Слой_1" />
<linearGradient
   id="SVGID_1__48332"
   gradientUnits="userSpaceOnUse"
   x1="43.5"
   y1="23"
   x2="43.5"
   y2="57.3302"
   spreadMethod="reflect">
	<stop
   offset="0"
   style="stop-color:#6DC7FF"
   id="stop2" />
	<stop
   offset="1"
   style="stop-color:#E6ABFF"
   id="stop4" />
</linearGradient>

<linearGradient
   id="SVGID_2__48332"
   gradientUnits="userSpaceOnUse"
   x1="32"
   y1="6.6666999"
   x2="32"
   y2="57.684399"
   spreadMethod="reflect">
	<stop
   offset="0"
   style="stop-color:#1A6DFF"
   id="stop9" />
	<stop
   offset="1"
   style="stop-color:#C822FF"
   id="stop11" />
</linearGradient>

<path
   id="rect1114"
   style="fill:#000000;stroke-width:0.516493;stroke-linecap:square"
   d="m 12.499499,10.000056 c -0.63836,0 -1.276638,0.244516 -1.765782,0.733661 -0.9782893,0.978288 -0.9782893,2.553275 0,3.531564 L 21.467778,25.000658 10.733717,35.73472 c -0.9782893,0.978285 -0.9782893,2.55459 0,3.532875 0.978288,0.978291 2.553275,0.978291 3.531564,0 L 24.999342,28.532223 35.734717,39.267595 c 0.978293,0.978291 2.553277,0.978291 3.531569,0 0.978285,-0.978285 0.978285,-2.55459 0,-3.532875 L 28.532221,25.000658 39.266286,14.265281 c 0.978285,-0.978289 0.978285,-2.553276 0,-3.531564 -0.978292,-0.9782893 -2.553276,-0.9782893 -3.531569,0 L 24.999342,21.469093 14.265281,10.733717 c -0.489144,-0.489145 -1.127423,-0.733661 -1.765782,-0.733661 z" /></svg>
