<?xml version="1.0"?>
<svg xmlns="http://www.w3.org/2000/svg" viewBox="0 0 16 16">
    <path style="line-height:normal;text-indent:0;text-align:start;text-decoration-line:none;text-decoration-style:solid;text-decoration-color:#000;text-transform:none;block-progression:tb;isolation:auto;mix-blend-mode:normal" d="M 10.5 1.0664062 C 10.45093 1.0947707 10.021788 1.2838414 9.5097656 1.484375 C 8.9977434 1.6849086 8.3610062 1.9261624 7.7304688 2.1660156 C 7.0999313 2.4058688 6.4757286 2.6445626 5.9824219 2.84375 C 5.7357685 2.9433437 5.5219419 3.0319643 5.3515625 3.109375 C 5.1811831 3.1867857 5.0922735 3.2080911 4.9257812 3.3496094 C 4.7465281 3.5019745 4.6179737 3.6756957 4.4296875 3.9296875 C 4.2414013 4.1836793 4.0298899 4.4950068 3.8261719 4.8144531 C 3.6224539 5.1338995 3.4285542 5.4596531 3.2792969 5.7558594 C 3.1300396 6.0520657 3 6.2610247 3 6.6152344 C 3 6.8058102 3.0270014 6.8149231 3.0527344 6.9101562 C 3.0784684 7.0053893 3.1127114 7.1207377 3.15625 7.2558594 C 3.243328 7.5261026 3.3646617 7.8735071 3.5097656 8.2519531 C 3.7762883 8.9470714 4.1196309 9.7225122 4.484375 10.339844 C 4.1907842 10.806839 4 11.360186 4 11.974609 C 4 13.627404 5.3554526 15 7 15 C 8.6445474 15 10 13.627404 10 11.974609 C 10 11.236438 9.7244235 10.542092 9.2597656 10.005859 C 9.4653658 9.9166083 9.612624 9.8499973 9.9707031 9.6953125 C 10.529424 9.4539534 11.206861 9.0929507 11.826172 8.453125 A 0.50005 0.50005 0 0 0 11.833984 8.4453125 C 12.503346 7.722728 12.761982 6.6781861 13.050781 5.7441406 C 13.339581 4.8100951 13.673257 4.0252077 14.025391 3.7929688 L 13.474609 2.9570312 C 12.660743 3.4937923 12.3877 4.4985142 12.09375 5.4492188 C 11.800308 6.3982789 11.500169 7.3293096 11.101562 7.7617188 C 10.605476 8.2722141 10.070343 8.5630256 9.5742188 8.7773438 C 9.0761899 8.9924845 8.6330617 9.0876455 8.2421875 9.3964844 C 7.9612304 9.6190532 7.6299577 9.9362737 7.2617188 10.197266 C 6.8934796 10.458257 6.5086748 10.634766 6.2207031 10.634766 C 5.9569903 10.634766 5.575224 10.346858 5.5527344 10.082031 A 0.50005 0.50005 0 0 0 5.5507812 10.074219 C 5.5314947 9.8825688 5.6092544 9.6656951 5.8066406 9.4140625 C 6.0040268 9.1624299 6.3107449 8.9036904 6.6308594 8.6835938 C 7.2710883 8.2434001 7.9414062 7.9609375 7.9414062 7.9609375 A 0.50005 0.50005 0 0 0 8.2246094 7.6582031 C 8.2246094 7.6582031 8.3477323 7.287287 8.5019531 6.8554688 C 8.6561739 6.4236505 8.8520799 5.9130278 8.9472656 5.7226562 A 0.50005 0.50005 0 0 0 8.5 5 L 6.625 5 A 0.50005 0.50005 0 0 0 6.1445312 5.3632812 C 6.1445312 5.3632812 5.9443994 6.0457227 5.2519531 6.4414062 A 0.50005 0.50005 0 0 0 5.0390625 7.0683594 C 5.0390625 7.0683594 5.1814344 7.4103574 5.3300781 7.7753906 C 5.4044001 7.9579072 5.4800915 8.1453004 5.5390625 8.296875 C 5.5447125 8.311409 5.5433681 8.3077976 5.5488281 8.3222656 C 5.3688963 8.4793058 5.1704822 8.6069291 5.0214844 8.796875 C 4.9772384 8.8532808 4.9386886 8.9158779 4.8984375 8.9765625 C 4.7354309 8.6199257 4.577535 8.2425218 4.4433594 7.8925781 C 4.3045883 7.5306491 4.1876874 7.1983191 4.1074219 6.9492188 C 4.0672891 6.8246684 4.0368559 6.7197786 4.0175781 6.6484375 C 4.0125707 6.6299066 4.0123398 6.6157236 4.0097656 6.5976562 C 4.0197641 6.6108138 4.0610583 6.4269508 4.171875 6.2070312 C 4.2974302 5.9578627 4.4769368 5.6511161 4.6679688 5.3515625 C 4.8590007 5.0520089 5.0628487 4.7567738 5.234375 4.5253906 C 5.4059013 4.2940074 5.5815187 4.103463 5.5722656 4.1113281 C 5.4907735 4.1805964 5.6182896 4.0864721 5.765625 4.0195312 C 5.9129604 3.9525904 6.1179659 3.8681719 6.3574219 3.7714844 C 6.8363339 3.5781093 7.4566 3.3390062 8.0859375 3.0996094 C 8.715275 2.8602126 9.3540534 2.6200445 9.875 2.4160156 C 10.395947 2.2119868 10.75757 2.0737293 11 1.9335938 L 10.5 1.0664062 z M 6.9375 6 L 7.765625 6 C 7.695435 6.1850542 7.6267116 6.3342699 7.5605469 6.5195312 C 7.4372027 6.864895 7.3777953 7.0416312 7.3378906 7.1601562 C 7.2055986 7.21769 6.8340376 7.4160326 6.3730469 7.6894531 C 6.3337958 7.5913072 6.2967656 7.4988932 6.2558594 7.3984375 C 6.167405 7.1812149 6.1382475 7.1139172 6.0820312 6.9785156 C 6.5375483 6.589774 6.8174496 6.2735542 6.9375 6 z M 8.4101562 10.564453 C 8.7703704 10.928032 9 11.434234 9 11.974609 C 9 13.077815 8.0834526 14 7 14 C 5.9165474 14 5 13.077815 5 11.974609 C 5 11.712513 5.048646 11.470616 5.1347656 11.246094 C 5.4379215 11.493135 5.8263762 11.634766 6.2207031 11.634766 C 6.8557315 11.634766 7.3943327 11.32943 7.8398438 11.013672 C 8.050653 10.86426 8.2422524 10.707198 8.4101562 10.564453 z" font-weight="400" font-family="sans-serif" white-space="normal" overflow="visible"/>
</svg>
